<svg xmlns="http://www.w3.org/2000/svg" width="28" height="24" viewBox="0 0 28 24">
	<style>
		.tile {
		fill: none;
		stroke: black;
		stroke-width: 0.5px;
		}
	</style>

	<g transform="translate(3, 0)"> <rect class="tile" x="5" y="2" width="3" height="8" transform="rotate(-45 6.5 6)" />
		<rect class="tile" x="5" y="6" width="3" height="8" transform="rotate(-45 6.5 10)" />
		<rect class="tile" x="5" y="10" width="3" height="8" transform="rotate(-45 6.5 14)" />
		<rect class="tile" x="5" y="14" width="3" height="8" transform="rotate(-45 6.5 18)" />

		<rect class="tile" x="10" y="1" width="3" height="8" transform="rotate(45 13.5 6)" />
		<rect class="tile" x="10" y="5" width="3" height="8" transform="rotate(45 13.5 10)" />
		<rect class="tile" x="10" y="9" width="3" height="8" transform="rotate(45 13.5 14)" />
		<rect class="tile" x="10" y="13" width="3" height="8" transform="rotate(45 13.5 18)" />
	</g>
</svg>
