<svg xmlns="http://www.w3.org/2000/svg" width="28" height="24" viewBox="0 0 28 24">
    <g fill="none" stroke="#000" stroke-width="1" stroke-linejoin="round" transform="translate(4, 0)">
        <!-- top row -->
        <polygon points="6,2 8,3.5 8,6.5 6,8 4,6.5 4,3.5"/>
        <polygon points="14,2 16,3.5 16,6.5 14,8 12,6.5 12,3.5"/>

        <!-- middle row -->
        <polygon points="10,8 12,9.5 12,12.5 10,14 8,12.5 8,9.5"/>
        <polygon points="18,8 20,9.5 20,12.5 18,14 16,12.5 16,9.5"/>
        <polygon points="2,8 4,9.5 4,12.5 2,14 0,12.5 0,9.5"/>

        <!-- bottom row -->
        <polygon points="6,14 8,15.5 8,18.5 6,20 4,18.5 4,15.5"/>
        <polygon points="14,14 16,15.5 16,18.5 14,20 12,18.5 12,15.5"/>
    </g>
</svg>